<?xml version="1.0" standalone="no"?><!DOCTYPE svg PUBLIC "-//W3C//DTD SVG 1.1//EN" "http://www.w3.org/Graphics/SVG/1.1/DTD/svg11.dtd"><svg t="1554695374324" class="icon" style="" viewBox="0 0 1024 1024" version="1.1" xmlns="http://www.w3.org/2000/svg" p-id="1984" xmlns:xlink="http://www.w3.org/1999/xlink" width="200" height="200"><defs><style type="text/css"></style></defs><path d="M416.254764 10.395345c-201.483563 43.907888-351.239263 217.111592-362.794389 419.596494-12.055795 211.322109 114.800253 399.975032 314.575183 465.94415 30.632209 10.116695 56.357066 25.871879 77.337486 49.594059 22.764551 25.736777 44.686707 52.224559 67.049928 78.469952 18.882379-22.935414 37.721048-46.709251 57.529267-69.648639 23.229458-26.901032 50.583476-46.625806 85.546871-58.141196 212.096954-69.859238 339.855001-274.291186 312.05197-496.679672C934.558574 135.689782 676.658341-46.355104 416.254764 10.395345zM510.964674 791.371638c-182.136277-0.520537-330.815141-150.180871-330.231027-332.404567 0.584114-182.176013 150.315973-330.942295 332.404567-330.258842 182.319061 0.683453 330.743617 150.117294 330.191292 332.432382C842.77718 643.376227 693.307577 791.888202 510.964674 791.371638z" p-id="1985"></path><path d="M575.40397 302.893403c-85.340245-0.174837-155.235245 69.918841-154.984911 155.425977 0.246361 84.895206 69.378437 154.539872 153.625952 154.762391 87.30716 0.230467 156.586257-68.281733 157.126662-155.390214C731.704131 372.967214 661.364092 303.06824 575.40397 302.893403z" p-id="1986"></path></svg>